<svg width="133" height="24" viewBox="0 0 133 24" fill="none" xmlns="http://www.w3.org/2000/svg">
<g clip-path="url(#clip0)">
<path d="M83.1065 12.9991C83.1255 12.9863 83.147 12.9779 83.1696 12.9744C83.2757 12.9329 83.3748 12.8959 83.4608 12.8597C83.5141 12.8321 83.5696 12.8088 83.6266 12.7901C85.2571 12.0168 86.6236 10.3132 86.6236 8.51966C86.6236 4.75539 83.8248 3.57294 80.5506 3.57294H74.3706C74.432 3.69462 74.7451 5.0305 74.7451 5.08165V21.6633H77.6062C77.672 21.6639 77.7372 21.6513 77.7981 21.6262C77.859 21.6012 77.9142 21.5642 77.9607 21.5174C78.0072 21.4706 78.0439 21.4149 78.0687 21.3537C78.0935 21.2924 78.106 21.2268 78.1053 21.1607V13.6022H79.4727C81.4847 13.6022 82.7319 13.1348 83.0372 13.0273C83.0468 13.0088 83.0784 13.0017 83.103 12.9991H83.1065ZM79.6902 11.195H78.1114V6.04983H80.2419C81.7592 6.04983 83.0538 6.86635 83.0538 8.4888C83.0538 10.5892 81.6022 11.1923 79.6928 11.1923" fill="#BCBCBC"/>
<path d="M65.9428 3.57294H60.2417C60.3022 3.69374 60.6127 5.0305 60.6127 5.08165V21.6633H63.4773C63.6119 21.665 63.7418 21.6131 63.8385 21.5189C63.9353 21.4248 63.9911 21.2961 63.9939 21.1607V14.3958H66.0016C69.3275 14.3958 72.4921 12.7645 72.4921 8.98788C72.4921 4.90794 69.5038 3.57294 65.9402 3.57294H65.9428ZM66.07 12H64.0036V6.02073H66.0832C67.9671 6.02073 68.903 7.18467 68.903 8.98788C68.903 10.7435 67.8987 12 66.0726 12" fill="#BCBCBC"/>
<path d="M80.313 14.9751L84.4617 21.6615H88.2946L83.6302 14.4575C82.5573 14.7999 81.4386 14.9753 80.313 14.9777" fill="#BCBCBC"/>
<path d="M89.2701 5.08165V21.6589H92.1645C92.2989 21.6613 92.4286 21.6099 92.5253 21.5162C92.622 21.4225 92.6777 21.294 92.6803 21.1589V3.57294H88.9438C88.9552 3.69374 89.271 5.02962 89.271 5.08165" fill="#BCBCBC"/>
<path d="M105.472 14.0501C105.132 15.0201 105.061 15.9142 104.814 16.9547C104.613 15.9274 104.473 14.9469 104.097 13.9496L100.278 3.57294H95.5493C95.5572 3.69374 95.8905 5.02962 95.8905 5.08165V21.6483H98.1113C98.2402 21.6369 98.3602 21.5775 98.4478 21.4818C98.5355 21.386 98.5843 21.2608 98.5849 21.1307V9.38556C98.5849 8.78331 98.4648 8.17225 98.4534 7.60439C98.6542 8.19341 98.8288 8.78331 99.0393 9.38556L103.568 21.6633H105.393L109.789 9.38556C110 8.78331 110.174 8.19341 110.378 7.60439C110.303 8.19528 110.259 8.78989 110.248 9.38556V21.6483H113.107C113.236 21.6375 113.357 21.5784 113.446 21.4827C113.534 21.3869 113.583 21.2613 113.584 21.1307V3.57294H109.243L105.472 14.0501Z" fill="#BCBCBC"/>
<path d="M123.85 3.30667C118.35 3.30667 115.318 7.30638 115.318 12.5908C115.318 17.8338 118.32 21.9376 123.826 21.9376C129.283 21.9376 132.502 17.9696 132.502 12.6525C132.502 7.23231 129.455 3.30579 123.852 3.30579L123.85 3.30667ZM123.927 19.5974C120.061 19.5974 118.939 15.7379 118.939 12.4947C118.939 9.30446 120.088 5.64071 123.884 5.64071C127.761 5.64071 128.868 9.52843 128.868 12.7354C128.868 15.9424 127.719 19.5974 123.927 19.5974" fill="#BCBCBC"/>
<path d="M1.83162 12.4427C1.83162 13.7812 2.74555 14.9257 4.33134 14.9257C4.85139 14.9318 5.36446 14.805 5.82239 14.5571V13.3112H3.92437V12.269H7.02489V15.0686C6.28379 15.7482 5.31423 16.1206 4.31116 16.1108C2.1158 16.1108 0.497559 14.4575 0.497559 12.4294C0.497559 10.4014 2.08247 8.73129 4.28836 8.73129C5.32508 8.73129 6.1171 9.01698 6.86965 9.58925L6.28638 10.5724C5.5847 10.1024 4.98565 9.90845 4.32432 9.90845C2.72538 9.90845 1.83162 11.1447 1.83162 12.4427Z" fill="#BCBCBC"/>
<path d="M14.1801 13.3006C14.302 14.0668 14.6879 14.9759 15.4404 14.9759C15.7315 14.9728 16.0107 14.8598 16.2228 14.6594L16.6798 15.5588C16.2965 15.9242 15.7852 16.1226 15.2571 16.1108C13.5801 16.1108 13.0644 14.1894 12.9907 13.372H11.79V15.9979H10.4893V8.84589H13.5591C14.9712 8.84589 15.7746 9.919 15.7746 11.1447C15.7737 12.1869 15.1738 13.0466 14.1801 13.3006ZM13.3565 12.3306C14.0274 12.3306 14.4546 11.8395 14.4546 11.135C14.4546 10.4304 14.016 9.9287 13.3565 9.9287H11.79V12.3306H13.3565Z" fill="#BCBCBC"/>
<path d="M25.2544 8.84589V13.3217C25.2544 15.1497 23.9335 16.1108 22.3784 16.1108C20.8233 16.1108 19.5024 15.1497 19.5024 13.3217V8.84589H20.8032V13.3217C20.8032 14.4345 21.525 14.9865 22.3819 14.9865C23.2389 14.9865 23.9607 14.4345 23.9607 13.3217V8.84589H25.2544Z" fill="#BCBCBC"/>
<path d="M29.0239 15.9979V8.84589H32.0122C33.4348 8.84589 34.2374 9.90401 34.2374 11.1447C34.2374 12.3853 33.4243 13.3826 32.0122 13.3826H30.3247V15.9979H29.0239ZM31.8096 12.35C32.4902 12.35 32.9077 11.8501 32.9077 11.135C32.9077 10.3987 32.4902 9.90048 31.8096 9.90048H30.3247V12.3518L31.8096 12.35Z" fill="#BCBCBC"/>
<path d="M40.7306 8.73392C42.7637 8.73392 44.4513 10.389 44.4513 12.4224C44.4513 14.4557 42.7637 16.1108 40.7306 16.1108C38.6975 16.1108 37.0117 14.4557 37.0117 12.4224C37.0117 10.389 38.6984 8.73392 40.7306 8.73392ZM40.7306 14.9257C42.0419 14.9257 43.1295 13.8676 43.1295 12.4224C43.1295 10.9771 42.0419 9.91902 40.7306 9.91902C39.4194 9.91902 38.3326 10.9815 38.3326 12.4224C38.3326 13.8632 39.4202 14.9257 40.7306 14.9257Z" fill="#BCBCBC"/>
<path d="M53.1794 0H52.5269V24H53.1794V0Z" fill="#BCBCBC"/>
</g>
<defs>
<clipPath id="clip0">
<rect width="132" height="24" fill="white" transform="translate(0.5)"/>
</clipPath>
</defs>
</svg>
